<?xml version="1.0" encoding="UTF-8"?>
<svg version="1.1" xmlns="http://www.w3.org/2000/svg" width="32" height="32">
<path d="M0 0 C10.56 0 21.12 0 32 0 C32 10.56 32 21.12 32 32 C21.44 32 10.88 32 0 32 C0 21.44 0 10.88 0 0 Z " fill="#670349" transform="translate(0,0)"/>
<path d="M0 0 C3.96 0 7.92 0 12 0 C12.37024635 11.35422148 12.37024635 11.35422148 10.65625 14.34375 C8.54790258 16.45209742 6.91682137 16.68466796 4 17 C4.66 18.32 5.32 19.64 6 21 C5.01 21.33 4.02 21.66 3 22 C2.67 23.65 2.34 25.3 2 27 C1.01 26.67 0.02 26.34 -1 26 C-1.33 26.66 -1.66 27.32 -2 28 C-2 27.01 -2 26.02 -2 25 C-5.71599191 24.79913557 -6.77208445 24.8480563 -10 27 C-10 25 -10 23 -10 21 C-10.99 21 -11.98 21 -13 21 C-12.67 20.01 -12.34 19.02 -12 18 C-9.69 18 -7.38 18 -5 18 C-4.77390663 15.87635519 -4.77390663 15.87635519 -6.5 14.375 C-6.995 13.92125 -7.49 13.4675 -8 13 C-6.12356239 11.12356239 -3.50194299 11.82015013 -1.0078125 11.76953125 C1 12 1 12 4 14 C3.65557106 11.50289018 3.15296001 10.17845335 1.5 8.25 C-2.25557239 6.37221381 -5.87646606 6.76210381 -10 7 C-10.28875 7.7425 -10.5775 8.485 -10.875 9.25 C-11.82302644 11.56739797 -12.84845911 13.77917115 -14 16 C-14.66 16 -15.32 16 -16 16 C-16.25 10.375 -16.25 10.375 -14 7 C-13.34 7 -12.68 7 -12 7 C-12 6.34 -12 5.68 -12 5 C-8.36576791 2.67409146 -5.22911669 2.83734167 -1 3 C-0.67 2.01 -0.34 1.02 0 0 Z " fill="#98043E" transform="translate(20,0)"/>
<path d="M0 0 C6.6 0 13.2 0 20 0 C19.67 0.99 19.34 1.98 19 3 C15.37 3.66 11.74 4.32 8 5 C8 5.66 8 6.32 8 7 C7.525625 7.4125 7.05125 7.825 6.5625 8.25 C4.41260332 10.65788428 4.34954602 12.85408584 4 16 C4.32871094 15.36191406 4.65742187 14.72382813 4.99609375 14.06640625 C8.73223204 7.57625816 8.73223204 7.57625816 12.19140625 6.00390625 C15.54774469 5.45303514 17.90406251 5.37919287 20.91015625 7.08203125 C22.5625 8.4375 22.5625 8.4375 25 11 C24.67 12.32 24.34 13.64 24 15 C23.01 14.34 22.02 13.68 21 13 C18.94290404 12.75944532 18.94290404 12.75944532 16.8125 12.875 C15.554375 12.91625 14.29625 12.9575 13 13 C14.32 14.32 15.64 15.64 17 17 C16.34 17.99 15.68 18.98 15 20 C15 19.34 15 18.68 15 18 C13.02 18 11.04 18 9 18 C8.67 18.66 8.34 19.32 8 20 C4.9681144 21.88186002 3.75482645 22 0 22 C0 14.74 0 7.48 0 0 Z " fill="#7E0437" transform="translate(0,0)"/>
<path d="M0 0 C6.6 0 13.2 0 20 0 C19.67 0.99 19.34 1.98 19 3 C15.37 3.66 11.74 4.32 8 5 C8 5.66 8 6.32 8 7 C7.54625 7.4125 7.0925 7.825 6.625 8.25 C4.46013354 10.58139465 3.87294123 12.97828036 3 16 C1.51171875 14.91796875 1.51171875 14.91796875 0 13 C-0.40743792 8.63769798 -0.13040636 4.39034742 0 0 Z " fill="#6A002B" transform="translate(0,0)"/>
<path d="M0 0 C2.97 0.495 2.97 0.495 6 1 C6 1.66 6 2.32 6 3 C6.66 3 7.32 3 8 3 C8 4.32 8 5.64 8 7 C-2.56 7 -13.12 7 -24 7 C-24 6.34 -24 5.68 -24 5 C-22.35 4.67 -20.7 4.34 -19 4 C-20.32 3.34 -21.64 2.68 -23 2 C-20.69 2 -18.38 2 -16 2 C-16 2.66 -16 3.32 -16 4 C-15.01 3.67 -14.02 3.34 -13 3 C-13 3.66 -13 4.32 -13 5 C-7.06 4.505 -7.06 4.505 -1 4 C-0.67 2.68 -0.34 1.36 0 0 Z " fill="#2B0027" transform="translate(24,25)"/>
<path d="M0 0 C5.94 0 11.88 0 18 0 C18.33 0.99 18.66 1.98 19 3 C18.01 3.33 17.02 3.66 16 4 C15.67 5.65 15.34 7.3 15 9 C14.01 8.67 13.02 8.34 12 8 C11.67 8.66 11.34 9.32 11 10 C11 9.01 11 8.02 11 7 C7.28400809 6.79913557 6.22791555 6.8480563 3 9 C3 7 3 5 3 3 C2.01 3 1.02 3 0 3 C0 2.01 0 1.02 0 0 Z " fill="#B205A0" transform="translate(7,18)"/>
<path d="M0 0 C0.33 0 0.66 0 1 0 C1 5.28 1 10.56 1 16 C0.34 16 -0.32 16 -1 16 C-1 15.34 -1 14.68 -1 14 C-4.62885324 13.84850702 -4.62885324 13.84850702 -8 15 C-8 15.66 -8 16.32 -8 17 C-9.65 17 -11.3 17 -13 17 C-12.505 15.515 -12.505 15.515 -12 14 C-11.01 14 -10.02 14 -9 14 C-8.67 12.68 -8.34 11.36 -8 10 C-8.66 9.67 -9.32 9.34 -10 9 C-8.35 9 -6.7 9 -5 9 C-5.99 7.68 -6.98 6.36 -8 5 C-7 4 -7 4 -4.4375 3.9375 C-3.2309375 3.9684375 -3.2309375 3.9684375 -2 4 C-1.34 2.68 -0.68 1.36 0 0 Z " fill="#67036A" transform="translate(31,12)"/>
<path d="M0 0 C4.8 2.46153846 4.8 2.46153846 5.8125 5.1875 C5.874375 5.785625 5.93625 6.38375 6 7 C7.65 6.34 9.3 5.68 11 5 C10.38722388 7.96175123 9.74627478 9.38058783 8 12 C3.62494742 13.93316277 -0.24565884 14.61630348 -5 14 C-7.4375 11.5 -7.4375 11.5 -9 9 C-7.12356239 7.12356239 -4.50194299 7.82015013 -2.0078125 7.76953125 C0 8 0 8 3 10 C2.7834375 9.13375 2.7834375 9.13375 2.5625 8.25 C2.19475287 6.77901149 1.8598631 5.2993155 1.5625 3.8125 C1.376875 3.214375 1.19125 2.61625 1 2 C0.34 1.67 -0.32 1.34 -1 1 C-0.67 0.67 -0.34 0.34 0 0 Z " fill="#941B55" transform="translate(21,4)"/>
<path d="M0 0 C0 0.99 0 1.98 0 3 C-4.455 3.495 -4.455 3.495 -9 4 C-9.28875 4.7425 -9.5775 5.485 -9.875 6.25 C-10.82302644 8.56739797 -11.84845911 10.77917115 -13 13 C-13.66 13 -14.32 13 -15 13 C-15.25 7.375 -15.25 7.375 -13 4 C-12.34 4 -11.68 4 -11 4 C-11 3.34 -11 2.68 -11 2 C-7.36576791 -0.32590854 -4.22911669 -0.16265833 0 0 Z " fill="#AC657F" transform="translate(19,3)"/>
<path d="M0 0 C2.97 0.495 2.97 0.495 6 1 C6 1.66 6 2.32 6 3 C6.66 3 7.32 3 8 3 C8 4.32 8 5.64 8 7 C5.36 7 2.72 7 0 7 C0 6.34 0 5.68 0 5 C-1.65 5 -3.3 5 -5 5 C-3.68 4.67 -2.36 4.34 -1 4 C-0.67 2.68 -0.34 1.36 0 0 Z " fill="#41003A" transform="translate(24,25)"/>
<path d="M0 0 C0.33 0 0.66 0 1 0 C1 3.3 1 6.6 1 10 C-2.63 10 -6.26 10 -10 10 C-10 9.67 -10 9.34 -10 9 C-8.35 9 -6.7 9 -5 9 C-5.99 7.68 -6.98 6.36 -8 5 C-7 4 -7 4 -4.4375 3.9375 C-3.2309375 3.9684375 -3.2309375 3.9684375 -2 4 C-1.34 2.68 -0.68 1.36 0 0 Z " fill="#750060" transform="translate(31,12)"/>
<path d="M0 0 C5.94 0 11.88 0 18 0 C18.33 0.99 18.66 1.98 19 3 C12.73 3 6.46 3 0 3 C0 2.01 0 1.02 0 0 Z " fill="#C287AA" transform="translate(7,18)"/>
<path d="M0 0 C0.33 1.65 0.66 3.3 1 5 C-0.258125 5.020625 -1.51625 5.04125 -2.8125 5.0625 C-3.52019531 5.07410156 -4.22789063 5.08570313 -4.95703125 5.09765625 C-7 5 -7 5 -10 4 C-10 3.34 -10 2.68 -10 2 C-6.37626474 -0.79545292 -4.37834956 -1.37605272 0 0 Z " fill="#670347" transform="translate(18,25)"/>
<path d="M0 0 C3.04248594 1.52124297 4.70838684 2.44454636 6.3125 5.5 C7 8 7 8 7 11 C6.01 11 5.02 11 4 11 C2.9956049 8.58945177 2.06741012 6.30334552 1.5 3.75 C1.335 3.1725 1.17 2.595 1 2 C0.34 1.67 -0.32 1.34 -1 1 C-0.67 0.67 -0.34 0.34 0 0 Z " fill="#BF6A90" transform="translate(21,4)"/>
<path d="M0 0 C1.32 0.33 2.64 0.66 4 1 C0.25 7.875 0.25 7.875 -2 9 C-2.25 3.375 -2.25 3.375 0 0 Z " fill="#A75E79" transform="translate(6,7)"/>
<path d="M0 0 C0.33 0 0.66 0 1 0 C1 1.65 1 3.3 1 5 C-1.57213134 6.61949011 -2.67669159 7.04408751 -5.75 6.625 C-6.4925 6.41875 -7.235 6.2125 -8 6 C-7.67 5.34 -7.34 4.68 -7 4 C-5.35 4 -3.7 4 -2 4 C-1.34 2.68 -0.68 1.36 0 0 Z " fill="#850156" transform="translate(31,12)"/>
<path d="M0 0 C-0.33 0.99 -0.66 1.98 -1 3 C-3.64 3.33 -6.28 3.66 -9 4 C-9 3.01 -9 2.02 -9 1 C-5.8035914 -0.06546953 -3.34252724 -0.07427838 0 0 Z " fill="#740230" transform="translate(20,0)"/>
<path d="M0 0 C1.65 0 3.3 0 5 0 C5 1.32 5 2.64 5 4 C3.02 4 1.04 4 -1 4 C-0.67 2.68 -0.34 1.36 0 0 Z " fill="#970178" transform="translate(5,23)"/>
<path d="M0 0 C2.31 0 4.62 0 7 0 C7 0.66 7 1.32 7 2 C4.23735711 2.59732819 1.83967231 3 -1 3 C-0.67 2.01 -0.34 1.02 0 0 Z " fill="#E400CE" transform="translate(10,23)"/>
<path d="M0 0 C2.97 0.495 2.97 0.495 6 1 C5.67 2.32 5.34 3.64 5 5 C5 4.34 5 3.68 5 3 C3.02 3 1.04 3 -1 3 C-0.67 2.01 -0.34 1.02 0 0 Z " fill="#C3079A" transform="translate(12,20)"/>
</svg>
